<svg width="263" height="262" viewBox="0 0 263 262" fill="none" xmlns="http://www.w3.org/2000/svg">
<path d="M245.213 106.899L168.713 182.899L92.7131 106.899C92.7131 106.899 88.0488 110.5 81.7131 117.399C75.3773 124.297 74.6701 128.119 75.7131 134.899L168.713 229.399L256.213 141.399C263.327 134.259 263.517 130.058 260.713 122.399L245.213 106.899Z" fill="#054398"/>
<path d="M40.713 130.899L153.213 245.899L142.213 256.399C135.333 261.595 130.828 263.043 118.713 256.399L6.71305 145.399C-0.662117 134.464 -2.4327 128.333 6.71305 117.399L120.713 4.39852C127.129 -0.984976 131.974 -0.61067 142.213 4.39852L203.713 67.3985C208.646 73.664 210.152 77.611 209.213 85.8985L161.213 134.899C156.807 140.106 152.787 141.05 142.213 138.399L126.713 122.399L168.713 79.3985L130.713 40.8985L40.713 130.899Z" fill="#054398"/>
<path d="M245.213 106.899L168.713 182.899L92.7131 106.899C92.7131 106.899 88.0488 110.5 81.7131 117.399C75.3773 124.297 74.6701 128.119 75.7131 134.899L168.713 229.399L256.213 141.399C263.327 134.259 263.517 130.058 260.713 122.399L245.213 106.899Z" stroke="#07418F"/>
<path d="M40.713 130.899L153.213 245.899L142.213 256.399C135.333 261.595 130.828 263.043 118.713 256.399L6.71305 145.399C-0.662117 134.464 -2.4327 128.333 6.71305 117.399L120.713 4.39852C127.129 -0.984976 131.974 -0.61067 142.213 4.39852L203.713 67.3985C208.646 73.664 210.152 77.611 209.213 85.8985L161.213 134.899C156.807 140.106 152.787 141.05 142.213 138.399L126.713 122.399L168.713 79.3985L130.713 40.8985L40.713 130.899Z" stroke="#07418F"/>
</svg>
